<svg width="31" height="32" viewBox="0 0 31 32" fill="none" xmlns="http://www.w3.org/2000/svg">
<path fill-rule="evenodd" clip-rule="evenodd" d="M16.3061 30.2438L16.2921 30.2463L16.2013 30.2911L16.1757 30.2962L16.1578 30.2911L16.0671 30.2463C16.0534 30.2421 16.0432 30.2442 16.0364 30.2527L16.0313 30.2655L16.0095 30.8127L16.0159 30.8383L16.0287 30.8549L16.1617 30.9495L16.1808 30.9546L16.1962 30.9495L16.3292 30.8549L16.3445 30.8344L16.3496 30.8127L16.3279 30.2668C16.3245 30.2531 16.3172 30.2455 16.3061 30.2438ZM16.645 30.0993L16.6283 30.1018L16.3918 30.2208L16.379 30.2335L16.3752 30.2476L16.3982 30.7974L16.4046 30.8127L16.4148 30.8217L16.6718 30.9406C16.688 30.9448 16.7004 30.9414 16.7089 30.9303L16.714 30.9124L16.6705 30.1274C16.6663 30.1121 16.6577 30.1027 16.645 30.0993ZM15.7308 30.1018C15.7252 30.0984 15.7184 30.0973 15.712 30.0988C15.7056 30.1002 15.6999 30.104 15.6963 30.1095L15.6886 30.1274L15.6451 30.9124C15.646 30.9278 15.6532 30.938 15.6669 30.9431L15.6861 30.9406L15.943 30.8217L15.9558 30.8114L15.9609 30.7974L15.9827 30.2476L15.9788 30.2323L15.9661 30.2195L15.7308 30.1018Z" fill="#0064FF"/>
<path fill-rule="evenodd" clip-rule="evenodd" d="M5.31965 15.8498C5.31983 13.8815 5.88797 11.9549 6.9559 10.3015C8.02383 8.64798 9.54618 7.33776 11.3403 6.52803C13.1344 5.71829 15.124 5.44343 17.0705 5.73643C19.0169 6.02943 20.8375 6.87785 22.3137 8.17987C23.7899 9.48189 24.8591 11.1822 25.3929 13.0768C25.9267 14.9714 25.9025 16.9798 25.3232 18.861C24.744 20.7422 23.6341 22.4163 22.127 23.6824C20.6199 24.9485 18.7794 25.7528 16.8265 25.9988V18.4069H19.3836C19.7226 18.4069 20.0478 18.2722 20.2876 18.0324C20.5274 17.7927 20.6621 17.4674 20.6621 17.1284C20.6621 16.7893 20.5274 16.4641 20.2876 16.2243C20.0478 15.9845 19.7226 15.8498 19.3836 15.8498H16.8265V13.2927C16.8265 12.9537 16.9612 12.6285 17.201 12.3887C17.4407 12.1489 17.7659 12.0142 18.105 12.0142H18.7443C19.0834 12.0142 19.4086 11.8795 19.6483 11.6397C19.8881 11.4 20.0228 11.0748 20.0228 10.7357C20.0228 10.3966 19.8881 10.0714 19.6483 9.83161C19.4086 9.59184 19.0834 9.45714 18.7443 9.45714H18.105C17.0878 9.45714 16.1121 9.86125 15.3928 10.5806C14.6735 11.2999 14.2694 12.2755 14.2694 13.2927V15.8498H11.7123C11.3732 15.8498 11.048 15.9845 10.8083 16.2243C10.5685 16.4641 10.4338 16.7893 10.4338 17.1284C10.4338 17.4674 10.5685 17.7927 10.8083 18.0324C11.048 18.2722 11.3732 18.4069 11.7123 18.4069H14.2694V25.9988C11.7975 25.6874 9.52426 24.4845 7.87641 22.6158C6.22856 20.7471 5.31941 18.3413 5.31965 15.8498ZM15.5479 28.6352C22.6093 28.6352 28.3333 22.9112 28.3333 15.8498C28.3333 8.78846 22.6093 3.06445 15.5479 3.06445C8.48658 3.06445 2.76257 8.78846 2.76257 15.8498C2.76257 22.9112 8.48658 28.6352 15.5479 28.6352Z" fill="#0064FF"/>
</svg>
