<svg width="32" height="32" viewBox="0 0 32 32" fill="none" xmlns="http://www.w3.org/2000/svg">
<path d="M10.4796 3.06445H21.2193C25.3106 3.06445 28.6348 6.38865 28.6348 10.48V21.2197C28.6348 23.1864 27.8536 25.0726 26.4629 26.4632C25.0722 27.8539 23.186 28.6352 21.2193 28.6352H10.4796C6.38828 28.6352 3.06409 25.311 3.06409 21.2197V10.48C3.06409 8.51325 3.84536 6.62709 5.23604 5.23641C6.62672 3.84573 8.51289 3.06445 10.4796 3.06445ZM10.2239 5.62153C9.00317 5.62153 7.83245 6.10646 6.96927 6.96964C6.10609 7.83282 5.62116 9.00354 5.62116 10.2243V21.4754C5.62116 24.0197 7.67961 26.0781 10.2239 26.0781H21.475C22.6957 26.0781 23.8665 25.5932 24.7296 24.73C25.5928 23.8668 26.0778 22.6961 26.0778 21.4754V10.2243C26.0778 7.67997 24.0193 5.62153 21.475 5.62153H10.2239ZM22.5618 7.53933C22.9856 7.53933 23.3921 7.70771 23.6919 8.00743C23.9916 8.30714 24.1599 8.71364 24.1599 9.1375C24.1599 9.56137 23.9916 9.96787 23.6919 10.2676C23.3921 10.5673 22.9856 10.7357 22.5618 10.7357C22.1379 10.7357 21.7314 10.5673 21.4317 10.2676C21.132 9.96787 20.9636 9.56137 20.9636 9.1375C20.9636 8.71364 21.132 8.30714 21.4317 8.00743C21.7314 7.70771 22.1379 7.53933 22.5618 7.53933ZM15.8495 9.45714C17.5449 9.45714 19.1709 10.1307 20.3698 11.3295C21.5686 12.5284 22.2421 14.1544 22.2421 15.8498C22.2421 17.5453 21.5686 19.1713 20.3698 20.3701C19.1709 21.569 17.5449 22.2425 15.8495 22.2425C14.154 22.2425 12.528 21.569 11.3291 20.3701C10.1303 19.1713 9.45677 17.5453 9.45677 15.8498C9.45677 14.1544 10.1303 12.5284 11.3291 11.3295C12.528 10.1307 14.154 9.45714 15.8495 9.45714ZM15.8495 12.0142C14.8322 12.0142 13.8566 12.4183 13.1373 13.1376C12.418 13.857 12.0138 14.8326 12.0138 15.8498C12.0138 16.8671 12.418 17.8427 13.1373 18.562C13.8566 19.2813 14.8322 19.6854 15.8495 19.6854C16.8667 19.6854 17.8423 19.2813 18.5616 18.562C19.281 17.8427 19.6851 16.8671 19.6851 15.8498C19.6851 14.8326 19.281 13.857 18.5616 13.1376C17.8423 12.4183 16.8667 12.0142 15.8495 12.0142Z" fill="#0064FF"/>
</svg>
