<svg width="32" height="32" viewBox="0 0 32 32" fill="none" xmlns="http://www.w3.org/2000/svg">
<g clip-path="url(#clip0_140_372)">
<path d="M23.6373 5.20732C22.4982 3.90654 21.8704 2.23632 21.8706 0.507324H16.7206V21.174C16.6817 22.2926 16.2098 23.3525 15.4044 24.1298C14.5991 24.9072 13.5233 25.3413 12.4039 25.3407C10.0373 25.3407 8.0706 23.4073 8.0706 21.0073C8.0706 18.1407 10.8373 15.9907 13.6873 16.874V11.6073C7.93726 10.8407 2.90393 15.3073 2.90393 21.0073C2.90393 26.5573 7.50393 30.5073 12.3873 30.5073C17.6206 30.5073 21.8706 26.2573 21.8706 21.0073V10.524C23.9589 12.0237 26.4662 12.8284 29.0373 12.824V7.67399C29.0373 7.67399 25.9039 7.82399 23.6373 5.20732Z" fill="#0064FF"/>
</g>
<defs>
<clipPath id="clip0_140_372">
<rect width="30.6849" height="30.6849" fill="white" transform="translate(0.903931 0.507324)"/>
</clipPath>
</defs>
</svg>
