<svg width="1920" height="739" viewBox="0 0 1920 739" fill="none" xmlns="http://www.w3.org/2000/svg">
<path d="M-9.41011 63.2169C97.5775 382.717 1481.18 -128.283 1975.29 63.2169C2469.39 254.717 1975.29 739.217 1975.29 739.217H-9.41011C-9.41011 739.217 -116.398 -256.283 -9.41011 63.2169Z" fill="#BDD3F6" fill-opacity="0.5"/>
<path d="M3.6744 15.2568C223.442 137.88 1842.94 154.774 1993.91 15.2568C2144.87 -124.26 1993.91 739 1993.91 739H3.6744C3.6744 739 -216.093 -107.366 3.6744 15.2568Z" fill="#7DA9ED"/>
<path d="M-9.41011 229.218C115.667 -80.7838 1159.18 161.717 1975.29 229.218C2791.39 296.72 1975.29 739.218 1975.29 739.218H-9.41011C-9.41011 739.218 -134.487 539.221 -9.41011 229.218Z" fill="url(#paint0_linear_140_354)"/>
<defs>
<linearGradient id="paint0_linear_140_354" x1="1137" y1="75" x2="1137" y2="739" gradientUnits="userSpaceOnUse">
<stop stop-color="#3D88FE"/>
<stop offset="1" stop-color="#003FA2"/>
</linearGradient>
</defs>
</svg>
