<svg width="1769" height="1007" viewBox="0 0 1769 1007" fill="none" xmlns="http://www.w3.org/2000/svg">
<path d="M511.939 209.55C513.169 208.63 514.784 208.401 516.221 208.942L587.001 235.608C588.539 236.187 589.638 237.559 589.869 239.186C590.1 240.814 589.426 242.438 588.11 243.422L522.925 292.186C521.609 293.17 519.86 293.359 518.365 292.678C516.869 291.997 515.863 290.554 515.741 288.915L510.147 213.486L510.135 213.2C510.12 211.771 510.786 210.413 511.939 209.55Z" stroke="#403D99" stroke-width="9" stroke-linejoin="round"/>
<path d="M551.222 851.738C551.627 852.73 551.472 853.863 550.815 854.709L499.848 920.394C499.191 921.24 498.132 921.672 497.07 921.527C496.009 921.381 495.105 920.68 494.7 919.688L463.299 842.707C462.895 841.715 463.05 840.582 463.707 839.736C464.364 838.889 465.423 838.457 466.485 838.603L548.852 849.899L549.05 849.932C550.025 850.133 550.843 850.807 551.222 851.738Z" stroke="#6B66FF" stroke-width="6" stroke-linejoin="round"/>
<path d="M1083.5 3C1084.57 3 1085.56 3.5719 1086.1 4.5L1110.78 47.25C1111.32 48.1781 1111.32 49.3219 1110.78 50.25C1110.24 51.1782 1109.25 51.75 1108.18 51.75H1058.82C1057.75 51.75 1056.76 51.1782 1056.22 50.25C1055.68 49.3219 1055.68 48.1781 1056.22 47.25L1080.9 4.5L1081.01 4.33008C1081.56 3.50254 1082.5 3 1083.5 3Z" stroke="#6B66FF" stroke-width="6" stroke-linejoin="round"/>
<circle cx="1400" cy="981" r="24" stroke="#403D99" stroke-width="4" stroke-linejoin="round"/>
<circle cx="16" cy="269" r="14" stroke="#6B66FF" stroke-width="4"/>
<circle cx="1715" cy="624" r="48.5" stroke="#6B66FF" stroke-width="11"/>
</svg>
